<svg xmlns="http://www.w3.org/2000/svg" viewBox="0 0 1000 1000">
  <path d="M259 0Q203 0 155.5 28.0Q108 56 79.5 103.5Q51 151 51 208Q51 264 79.5 310.5Q108 357 155.5 385.0Q203 413 259 413Q325 413 383 372L476 476L397 515L565 534L566 365L517 440L422 334Q467 279 467 208Q467 151 439.0 103.5Q411 56 363.5 28.0Q316 0 259 0ZM259 50Q302 50 338.0 71.5Q374 93 395.5 129.0Q417 165 417 208Q417 250 395.5 285.5Q374 321 338.0 342.0Q302 363 259 363Q216 363 180.0 342.0Q144 321 122.5 285.5Q101 250 101 208Q101 165 122.5 129.0Q144 93 180.0 71.5Q216 50 259 50Z"/>
</svg>
