<svg xmlns="http://www.w3.org/2000/svg" viewBox="0 0 1000 1000">
  <path d="M232 -52V56H114V103H232V191Q181 198 140.0 227.0Q99 256 75.0 300.5Q51 345 51 398Q51 454 81.0 502.5Q111 551 160 578Q110 606 80.5 655.0Q51 704 51 761H101Q101 718 122.5 682.0Q144 646 180.0 624.5Q216 603 259 603Q303 603 339.0 624.5Q375 646 396.0 682.0Q417 718 417 761H467Q467 703 437.5 654.0Q408 605 358 578Q408 551 437.5 503.0Q467 455 467 398Q467 346 443.0 301.5Q419 257 378.5 227.5Q338 198 286 191V103H404V56H286V-52ZM259 240Q302 240 338.0 261.5Q374 283 395.5 319.0Q417 355 417 398Q417 440 395.5 475.0Q374 510 338.0 531.5Q302 553 259 553Q216 553 180.0 532.0Q144 511 122.5 476.0Q101 441 101 398Q101 356 122.5 320.0Q144 284 180.0 262.0Q216 240 259 240Z"/>
</svg>
