<svg xmlns="http://www.w3.org/2000/svg" viewBox="0 0 1000 1000">
  <path d="M154 7Q97 7 51 20V53Q139 53 204.5 91.0Q270 129 306.0 197.0Q342 265 342 354Q342 443 306.0 511.0Q270 579 205.0 617.0Q140 655 51 655V688Q97 701 154 701Q259 701 339.0 657.5Q419 614 464.5 536.0Q510 458 510 354Q510 252 464.5 173.5Q419 95 339.0 51.0Q259 7 154 7ZM155 37Q221 37 278.0 62.0Q335 87 377.0 130.5Q419 174 442.5 231.5Q466 289 466 354Q466 420 442.5 477.5Q419 535 377.0 578.5Q335 622 278.0 646.5Q221 671 155 671Q225 656 277.0 610.5Q329 565 357.5 499.0Q386 433 386 354Q386 276 357.5 209.5Q329 143 277.0 98.0Q225 53 155 37Z"/>
</svg>
