<svg xmlns="http://www.w3.org/2000/svg" viewBox="0 0 1000 1000">
  <path d="M215 8Q175 8 141.5 27.5Q108 47 87.5 80.5Q67 114 67 156Q67 217 111 261Q51 353 51 442Q51 526 94.0 589.5Q137 653 219.0 689.0Q301 725 418 725Q535 725 617.0 689.0Q699 653 742.0 589.0Q785 525 785 442Q785 354 725 262Q745 242 757.0 214.5Q769 187 769 156Q769 114 748.5 80.5Q728 47 694.5 27.5Q661 8 621 8Q581 8 547.5 27.5Q514 47 493.5 80.5Q473 114 473 156Q473 198 493.5 231.5Q514 265 547.5 284.5Q581 304 621 304Q646 304 675 294Q699 330 710.5 367.5Q722 405 722 442Q722 540 643.0 601.0Q564 662 418 662Q321 662 253.0 634.0Q185 606 149.5 556.5Q114 507 114 442Q114 406 125.5 369.0Q137 332 161 294Q187 304 215 304Q255 304 288.5 284.5Q322 265 342.5 231.5Q363 198 363 156Q363 114 342.5 80.5Q322 47 288.5 27.5Q255 8 215 8ZM215 68Q252 68 277.5 93.5Q303 119 303 156Q303 193 278.0 218.5Q253 244 215 244Q178 244 152.5 218.5Q127 193 127 156Q127 119 153.0 93.5Q179 68 215 68ZM621 68Q658 68 683.5 93.5Q709 119 709 156Q709 193 683.5 218.5Q658 244 621 244Q584 244 558.5 219.0Q533 194 533 156Q533 119 558.5 93.5Q584 68 621 68Z"/>
</svg>
