<svg xmlns="http://www.w3.org/2000/svg" viewBox="0 0 1000 1000">
  <path d="M418 8Q301 8 219.0 44.0Q137 80 94.0 144.0Q51 208 51 291Q51 381 111 472Q67 516 67 577Q67 618 87.0 651.5Q107 685 140.5 705.0Q174 725 215 725Q256 725 289.5 705.0Q323 685 343.0 651.5Q363 618 363 577Q363 536 343.0 502.5Q323 469 289.5 449.0Q256 429 215 429Q201 429 187.5 432.0Q174 435 161 439Q137 402 125.5 364.5Q114 327 114 291Q114 193 193.5 132.0Q273 71 418 71Q516 71 583.5 99.0Q651 127 686.5 176.5Q722 226 722 291Q722 329 710.5 366.0Q699 403 675 439Q661 435 647.5 432.0Q634 429 621 429Q580 429 546.5 449.0Q513 469 493.0 502.5Q473 536 473 577Q473 618 493.0 651.5Q513 685 546.5 705.0Q580 725 621 725Q662 725 695.5 705.0Q729 685 749.0 651.5Q769 618 769 577Q769 515 725 471Q785 380 785 291Q785 208 742.0 144.0Q699 80 617.0 44.0Q535 8 418 8ZM215 489Q252 489 277.5 514.5Q303 540 303 577Q303 614 277.5 639.5Q252 665 215 665Q178 665 152.5 639.0Q127 613 127 577Q127 540 152.5 514.5Q178 489 215 489ZM621 489Q658 489 683.5 514.5Q709 540 709 577Q709 614 683.0 639.5Q657 665 621 665Q584 665 558.5 639.5Q533 614 533 577Q533 540 558.5 514.5Q584 489 621 489Z"/>
</svg>
