<svg xmlns="http://www.w3.org/2000/svg" viewBox="0 0 1000 1000">
  <path d="M435 -31Q356 -31 286.0 -1.0Q216 29 163.5 81.5Q111 134 81.0 204.0Q51 274 51 353Q51 433 81.0 502.5Q111 572 163.5 624.5Q216 677 286.0 707.0Q356 737 435 737Q515 737 584.5 707.0Q654 677 706.5 624.5Q759 572 789.0 502.5Q819 433 819 353Q819 274 789.0 204.0Q759 134 706.5 81.5Q654 29 584.5 -1.0Q515 -31 435 -31ZM435 18Q504 18 565.0 44.0Q626 70 672.0 116.0Q718 162 744.0 223.0Q770 284 770 353Q770 422 744.0 483.0Q718 544 672.0 590.0Q626 636 565.0 662.0Q504 688 435 688Q366 688 305.0 662.0Q244 636 198.0 590.0Q152 544 126.0 483.0Q100 422 100 353Q100 284 126.0 223.0Q152 162 198.0 116.0Q244 70 305.0 44.0Q366 18 435 18ZM435 276Q403 276 380.5 299.0Q358 322 358 353Q358 385 380.5 407.5Q403 430 435 430Q467 430 489.5 407.5Q512 385 512 353Q512 322 489.5 299.0Q467 276 435 276Z"/>
</svg>
