<svg xmlns="http://www.w3.org/2000/svg" viewBox="0 0 1000 1000">
  <path d="M386 -11Q351 -11 322.5 6.0Q294 23 277.0 51.5Q260 80 260 115Q260 158 286.0 192.0Q312 226 352 236V430H214V201H51V267H144V648H51V714H214V493H352V714H417V493H555V714H718V648H625V267H718V201H555V430H417V237Q459 226 485.5 191.5Q512 157 512 115Q512 81 495.5 52.5Q479 24 450.5 6.5Q422 -11 386 -11ZM386 50Q414 50 432.5 68.5Q451 87 451 115Q451 142 432.0 161.0Q413 180 386 180Q358 180 339.5 161.5Q321 143 321 115Q321 87 339.5 68.5Q358 50 386 50Z"/>
</svg>
