<svg xmlns="http://www.w3.org/2000/svg" viewBox="0 0 1000 1000">
  <path d="M232 0V108H114V155H232V243Q181 250 140.0 279.0Q99 308 75.0 353.0Q51 398 51 450Q51 506 79.5 552.5Q108 599 155.5 627.0Q203 655 259 655Q316 655 363.5 627.0Q411 599 439.0 552.5Q467 506 467 450Q467 399 443.0 354.0Q419 309 378.5 279.5Q338 250 286 243V155H397V108H286V0ZM259 292Q302 292 338.0 313.5Q374 335 395.5 371.0Q417 407 417 450Q417 492 395.5 527.0Q374 562 338.0 583.5Q302 605 259 605Q216 605 180.0 583.5Q144 562 122.5 527.0Q101 492 101 450Q101 407 122.5 371.0Q144 335 180.0 313.5Q216 292 259 292Z"/>
</svg>
